<?xml version="1.0" standalone="no"?>
<!DOCTYPE svg PUBLIC "-//W3C//DTD SVG 20010904//EN"
 "http://www.w3.org/TR/2001/REC-SVG-20010904/DTD/svg10.dtd">
<svg version="1.0" xmlns="http://www.w3.org/2000/svg"
 width="223.000000pt" height="223.000000pt" viewBox="0 0 223.000000 223.000000"
 preserveAspectRatio="xMidYMid meet">
<metadata>
Created by potrace 1.14, written by Peter Selinger 2001-2017
</metadata>
<g transform="translate(0.000000,223.000000) scale(0.100000,-0.100000)"
fill="#000000" stroke="none">
<path d="M1087 1807 c-45 -46 -95 -100 -110 -120 -15 -20 -32 -37 -38 -37 -5
0 -22 -12 -37 -26 -15 -14 -46 -35 -69 -46 -24 -11 -49 -32 -55 -46 -7 -14
-26 -35 -41 -46 l-29 -21 -23 28 c-14 15 -29 45 -35 67 -11 41 -36 74 -50 65
-9 -6 -53 35 -90 82 -17 23 -36 35 -61 38 -32 5 -43 1 -83 -34 -26 -23 -55
-45 -66 -51 -10 -5 -28 -27 -40 -47 -13 -21 -45 -73 -73 -116 -43 -67 -49 -84
-49 -126 5 -204 78 -416 198 -577 87 -117 172 -193 284 -258 74 -42 192 -94
234 -102 11 -2 44 -9 71 -16 56 -14 274 -16 350 -4 283 46 567 260 695 523 62
127 94 236 105 355 5 62 3 71 -20 105 -14 21 -30 56 -36 78 -13 50 -33 72 -70
80 -15 4 -45 20 -65 36 -20 16 -43 29 -51 29 -16 0 -45 -30 -91 -94 -32 -45
-33 -46 -60 -32 -38 21 -75 58 -113 113 -46 67 -55 74 -91 75 -40 1 -69 26
-94 79 -12 29 -25 42 -44 46 -15 3 -38 15 -51 27 -85 77 -100 75 -202 -27z"/>
</g>
</svg>
